<?xml version="1.0" standalone="no"?><!DOCTYPE svg PUBLIC "-//W3C//DTD SVG 1.1//EN" "http://www.w3.org/Graphics/SVG/1.1/DTD/svg11.dtd"><svg t="1690167107173" class="icon" viewBox="0 0 1024 1024" version="1.1" xmlns="http://www.w3.org/2000/svg" p-id="724" xmlns:xlink="http://www.w3.org/1999/xlink" width="200" height="200"><path d="M512 1013.76l-245.1968-213.3504S358.912 875.52 512 875.52c149.8112 0 245.1968-75.008 245.1968-75.008z" fill="#FFFFFF" p-id="725"></path><path d="M512 430.08m-419.84 0a419.84 419.84 0 1 0 839.68 0 419.84 419.84 0 1 0-839.68 0Z" fill="#AED866" opacity=".9" p-id="726"></path><path d="M654.4384 220.7232a113.5104 113.5104 0 0 1 51.2 5.12 100.3008 100.3008 0 0 1 36.4032 22.2208 84.6848 84.6848 0 0 1 20.8384 32.9216 82.7392 82.7392 0 0 1-8.0384 72.7552 72.2432 72.2432 0 0 1-30.1056 26.4704q-25.1904 12.9024-51.2 24.064a479.8976 479.8976 0 0 1-47.9744 17.6128 250.88 250.88 0 0 1-42.5984 9.472A99.0208 99.0208 0 0 1 547.84 430.08q-8.2944 39.7312-13.1072 80.0768a721.5104 721.5104 0 0 0-5.12 89.1904c0 14.1824 0.3072 28.416 0.9216 42.5984s1.28 27.1872 2.0992 38.9632c0.768 13.4144 1.7408 26.368 2.9696 38.9632h-87.04c0.4096-7.7312 0.9728-17.8688 1.792-30.4128 0.4096-10.5472 0.768-24.3712 1.1776-41.4208s0.6144-37.9392 0.6144-62.72a668.3136 668.3136 0 0 1 5.5808-90.624q5.12-39.2192 13.7216-77.9776a107.1616 107.1616 0 0 1-49.4592-0.5632 209.92 209.92 0 0 1-52.48-20.48 291.0208 291.0208 0 0 1-50.6368-35.2768 319.7952 319.7952 0 0 1-43.52-45.3632 87.04 87.04 0 0 1-16.6912-31.6928 71.3216 71.3216 0 0 1-1.4848-31.0272 83.1488 83.1488 0 0 1 10.7008-28.6208A135.6288 135.6288 0 0 1 286.72 199.3728a65.7408 65.7408 0 0 1 22.6816-13.9776 90.4704 90.4704 0 0 1 28.2624-5.4784 136.7552 136.7552 0 0 1 31.0272 2.4064 139.776 139.776 0 0 1 30.72 9.7792 214.1696 214.1696 0 0 1 31.8976 19.7632A268.3392 268.3392 0 0 1 463.9744 240.64a318.2592 318.2592 0 0 1 29.2352 34.4064 241.8176 241.8176 0 0 1 22.3232 36.5056 151.6032 151.6032 0 0 1 25.0368-32.5632 209.92 209.92 0 0 1 34.304-27.6992 227.1232 227.1232 0 0 1 39.3216-20.48 143.36 143.36 0 0 1 40.2432-10.24z m0 0" fill="#FFFFFF" p-id="727"></path></svg>